<?xml version="1.0" standalone="no"?>
<!DOCTYPE svg PUBLIC "-//W3C//DTD SVG 20010904//EN"
 "http://www.w3.org/TR/2001/REC-SVG-20010904/DTD/svg10.dtd">
<svg version="1.0" xmlns="http://www.w3.org/2000/svg"
 width="1024.000000pt" height="1024.000000pt" viewBox="0 0 1024.000000 1024.000000"
 preserveAspectRatio="xMidYMid meet">
<metadata>
Created by potrace 1.16, written by Peter Selinger 2001-2019
</metadata>
<g transform="translate(0.000000,1024.000000) scale(0.100000,-0.100000)"
fill="#000000" stroke="none">
<path d="M0 5120 l0 -5120 5120 0 5120 0 0 5120 0 5120 -5120 0 -5120 0 0
-5120z m5116 4472 c10 -7 72 -96 107 -154 11 -17 23 -25 32 -22 8 4 15 1 15
-6 0 -6 -4 -8 -10 -5 -20 12 -9 -13 30 -74 22 -34 40 -64 40 -66 0 -14 59 -83
65 -77 5 4 5 1 1 -6 -4 -7 3 -26 16 -44 13 -18 46 -71 74 -118 35 -59 56 -84
67 -82 10 2 17 -2 17 -8 0 -6 -5 -8 -12 -4 -18 11 -3 -20 42 -86 22 -32 40
-62 40 -65 0 -19 45 -63 59 -58 13 4 13 3 2 -5 -11 -8 -5 -24 35 -86 27 -41
65 -101 85 -133 24 -38 42 -57 53 -55 9 2 16 -2 16 -8 0 -6 -4 -8 -10 -5 -16
10 -12 -12 5 -29 9 -8 15 -18 15 -21 -1 -13 34 -55 46 -55 8 0 14 -5 14 -11 0
-5 -5 -7 -11 -3 -7 4 -7 -2 1 -17 24 -46 52 -79 61 -74 5 4 6 0 3 -8 -3 -8 8
-34 24 -58 16 -24 51 -77 77 -116 25 -40 53 -73 60 -73 8 0 17 -5 21 -12 5 -7
2 -9 -9 -5 -11 4 -8 -7 12 -41 20 -33 33 -46 47 -44 15 2 16 1 5 -6 -15 -11
-6 -36 10 -27 5 3 7 0 4 -7 -3 -7 5 -28 17 -47 13 -19 28 -42 33 -52 6 -9 22
-34 36 -55 65 -99 85 -131 96 -156 9 -20 17 -26 30 -22 12 4 14 3 6 -3 -9 -6
6 -37 54 -113 78 -124 100 -153 105 -143 3 5 3 2 1 -5 -2 -8 29 -56 67 -107
53 -70 75 -93 88 -89 12 4 13 3 4 -3 -9 -7 18 -40 96 -121 60 -62 112 -110
115 -107 4 3 5 2 3 -1 -3 -3 15 -30 39 -59 42 -52 98 -137 165 -247 24 -41 37
-54 43 -45 6 8 7 6 3 -6 -4 -12 7 -41 30 -78 20 -32 39 -59 41 -59 2 0 1 5 -2
10 -3 6 -1 10 4 10 6 0 11 -2 11 -4 0 -2 3 -12 7 -22 4 -12 3 -15 -6 -10 -7 5
1 -16 18 -45 19 -33 37 -53 46 -51 8 2 15 -2 15 -8 0 -6 -5 -8 -11 -4 -7 4
-10 1 -7 -7 3 -8 14 -13 24 -11 15 2 16 1 5 -7 -21 -14 28 -97 54 -93 15 2 16
0 7 -6 -20 -13 30 -98 55 -94 14 2 15 1 4 -6 -14 -10 -6 -36 8 -28 4 3 12 -4
19 -14 10 -16 9 -18 -4 -13 -8 3 10 -32 40 -78 31 -46 62 -99 70 -116 11 -25
20 -31 33 -27 12 4 14 3 6 -3 -9 -6 -2 -25 28 -71 21 -35 44 -60 49 -57 5 3 7
0 4 -8 -3 -8 35 -77 88 -159 51 -79 98 -153 104 -163 7 -11 20 -19 30 -17 16
2 16 1 4 -7 -13 -9 -13 -13 4 -28 10 -10 16 -12 12 -5 -4 6 -2 12 4 12 7 0 9
-8 5 -19 -4 -14 6 -37 31 -73 20 -29 34 -45 31 -35 -4 11 -3 16 4 12 6 -4 8
-13 5 -21 -6 -16 49 -100 56 -87 3 5 3 2 1 -6 -3 -12 82 -151 93 -151 3 0 2 5
-1 10 -3 6 -1 10 5 10 7 0 9 -7 6 -15 -8 -23 40 -96 59 -89 8 4 15 1 15 -6 0
-6 -4 -8 -10 -5 -5 3 -10 3 -10 0 0 -10 69 -115 75 -115 4 0 3 5 0 10 -3 6 -1
10 4 10 6 0 11 -2 11 -4 0 -2 3 -12 7 -22 5 -12 3 -15 -6 -9 -11 6 -11 3 0
-16 21 -40 63 -89 77 -89 6 0 12 -5 12 -11 0 -5 -5 -7 -11 -3 -6 3 -4 -7 5
-22 22 -41 42 -64 54 -64 6 0 14 -5 18 -12 5 -7 2 -9 -8 -5 -10 3 -3 -15 19
-51 23 -39 39 -56 51 -54 12 2 13 0 5 -6 -18 -12 146 -261 167 -255 12 4 13 3
1 -5 -12 -8 -10 -16 8 -45 27 -44 27 -49 -9 -69 -20 -11 -28 -22 -24 -32 3 -9
1 -16 -5 -16 -6 0 -11 4 -11 9 0 4 -10 7 -22 4 -19 -2 -31 8 -62 54 -21 32
-74 110 -116 173 -243 358 -907 1363 -955 1444 -32 53 -63 100 -69 103 -6 4
-72 28 -146 54 -218 74 -200 62 -265 186 l-56 110 -105 44 c-100 41 -105 44
-99 69 15 57 74 353 91 459 l19 114 -25 16 c-14 9 -77 59 -140 111 -63 53
-152 124 -197 158 -66 50 -87 73 -110 119 -16 32 -71 123 -121 203 -51 80
-165 260 -254 400 -88 140 -236 374 -328 520 -92 146 -195 310 -230 365 -101
160 -337 553 -386 642 -25 46 -49 85 -53 87 -4 3 -11 -97 -15 -222 -17 -556
-23 -688 -29 -699 -4 -6 -178 -134 -387 -283 -312 -223 -385 -280 -404 -314
-13 -22 -84 -169 -157 -326 -119 -254 -406 -832 -773 -1555 -70 -137 -134
-251 -142 -253 -18 -4 -454 126 -472 141 -8 6 -25 34 -39 61 -32 62 -39 48
-19 -32 9 -33 16 -68 16 -78 0 -9 -44 -83 -98 -163 -107 -158 -330 -521 -460
-746 -255 -445 -632 -1055 -652 -1055 -8 0 -37 20 -65 44 l-50 44 22 43 c13
24 34 63 48 87 14 24 23 48 19 53 -3 5 0 8 7 7 6 -2 25 19 41 46 23 39 26 51
16 58 -9 6 -8 8 6 6 12 -2 24 8 35 29 10 17 25 43 34 57 19 29 22 40 7 31 -5
-3 -10 -1 -10 5 0 7 6 10 14 7 10 -4 28 17 57 64 35 58 40 72 28 80 -11 8 -10
9 5 7 14 -2 27 9 43 37 24 43 29 60 13 50 -5 -3 -10 -1 -10 5 0 6 7 10 16 8
15 -3 25 12 124 174 41 68 48 84 30 73 -6 -3 -10 -1 -10 5 0 7 6 10 14 7 10
-4 28 17 57 66 23 40 69 115 101 169 32 53 58 100 58 104 0 4 11 24 23 43 13
20 43 70 67 111 24 41 53 91 65 110 72 116 96 163 91 175 -3 8 0 14 6 12 6 -1
26 27 45 62 27 51 32 66 21 73 -10 7 -8 8 4 4 13 -4 23 4 34 27 26 51 105 180
121 199 8 9 12 21 9 27 -3 5 8 13 26 16 18 4 44 15 58 25 14 9 32 19 42 23 15
5 128 139 128 152 0 3 27 46 60 95 38 58 57 96 54 107 -5 15 -4 16 5 3 9 -13
11 -13 12 0 1 8 1 19 0 23 -1 5 3 6 8 3 14 -9 63 72 56 95 -4 11 -2 19 5 19 6
0 8 -5 4 -12 -4 -7 -3 -8 5 -4 11 7 81 112 81 122 0 3 -4 2 -10 -1 -5 -3 -10
-1 -10 5 0 6 8 10 18 8 11 -2 17 3 16 14 -1 10 2 16 6 15 12 -3 60 71 56 85
-1 7 -1 9 2 5 5 -10 46 44 73 95 14 27 16 38 6 42 -6 3 -3 4 7 3 26 -3 84 91
64 105 -10 7 -8 8 4 4 12 -4 23 3 34 22 9 15 25 39 36 55 10 15 16 33 12 40
-4 6 -4 9 1 5 9 -9 76 87 71 104 -1 7 -1 9 2 5 4 -8 23 18 69 92 15 26 18 38
10 44 -8 6 -6 7 5 3 23 -7 74 73 55 87 -8 6 -6 7 5 3 13 -4 23 4 34 27 9 18
30 51 45 74 20 29 25 43 16 46 -8 4 -7 6 4 6 8 1 61 69 117 154 98 147 114
176 92 162 -5 -3 -10 -1 -10 5 0 7 7 10 15 6 10 -4 26 12 50 50 36 57 42 69
25 59 -5 -3 -10 -1 -10 5 0 6 6 10 14 8 8 -2 43 42 86 107 40 61 85 129 101
152 16 23 29 45 29 49 0 4 10 21 23 38 41 56 66 106 61 121 -4 8 -1 15 6 15 6
0 8 -6 5 -12 -12 -25 30 32 58 75 15 25 26 51 24 58 -2 8 -2 10 1 6 7 -14 74
93 68 109 -3 8 -2 12 3 9 16 -9 25 16 10 27 -11 7 -10 8 5 6 26 -4 84 90 64
104 -9 6 -8 8 6 6 13 -2 29 14 57 61 41 66 45 76 29 66 -5 -3 -10 -1 -10 5 0
7 6 10 14 7 19 -8 138 186 129 209 -4 11 -2 15 5 10 16 -10 27 15 11 26 -11 7
-10 8 5 6 26 -4 84 90 64 104 -10 7 -8 8 5 4 13 -4 24 8 46 52 17 31 39 70 50
87 15 22 17 31 8 37 -7 4 -7 8 -2 8 6 0 15 -4 21 -8z m-46 -52 c0 -5 -4 -10
-10 -10 -5 0 -10 5 -10 10 0 6 5 10 10 10 6 0 10 -4 10 -10z m580 -730 c0 -5
-4 -10 -10 -10 -5 0 -10 5 -10 10 0 6 5 10 10 10 6 0 10 -4 10 -10z m-1180
-254 c0 -3 -4 -8 -10 -11 -5 -3 -10 -1 -10 4 0 6 5 11 10 11 6 0 10 -2 10 -4z
m986 -382 c8 -20 140 -287 293 -594 153 -307 302 -618 331 -692 71 -178 172
-479 164 -487 -8 -8 -46 36 -256 299 -161 201 -421 523 -551 682 -26 32 -51
58 -56 58 -4 0 -13 -12 -20 -27 -20 -44 -298 -523 -516 -888 -303 -509 -508
-856 -645 -1090 -68 -115 -189 -320 -269 -455 l-146 -245 -3 293 -2 292 -228
-153 c-125 -84 -268 -183 -318 -219 -210 -152 -235 -156 -142 -19 69 102 235
323 519 691 135 175 444 610 1039 1460 328 469 549 790 669 972 57 87 108 158
113 158 5 0 16 -16 24 -36z m584 16 c0 -5 -2 -10 -4 -10 -3 0 -8 5 -11 10 -3
6 -1 10 4 10 6 0 11 -4 11 -10z m-1820 -24 c0 -3 -4 -8 -10 -11 -5 -3 -10 -1
-10 4 0 6 5 11 10 11 6 0 10 -2 10 -4z m1895 -96 c3 -6 -1 -7 -9 -4 -18 7 -21
14 -7 14 6 0 13 -4 16 -10z m-2115 -244 c0 -3 -4 -8 -10 -11 -5 -3 -10 -1 -10
4 0 6 5 11 10 11 6 0 10 -2 10 -4z m-90 -130 c0 -3 -4 -8 -10 -11 -5 -3 -10
-1 -10 4 0 6 5 11 10 11 6 0 10 -2 10 -4z m-80 -120 c0 -3 -4 -8 -10 -11 -5
-3 -10 -1 -10 4 0 6 5 11 10 11 6 0 10 -2 10 -4z m2905 -457 c11 -17 -1 -21
-15 -4 -8 9 -8 15 -2 15 6 0 14 -5 17 -11z m385 -429 c0 -5 -2 -10 -4 -10 -3
0 -8 5 -11 10 -3 6 -1 10 4 10 6 0 11 -4 11 -10z m-4140 -424 c0 -3 -4 -8 -10
-11 -5 -3 -10 -1 -10 4 0 6 5 11 10 11 6 0 10 -2 10 -4z m2227 -170 c163 -270
418 -640 501 -727 35 -36 78 -89 95 -118 18 -28 63 -102 101 -163 38 -62 131
-207 206 -323 75 -115 171 -264 212 -330 238 -379 322 -506 342 -522 35 -27
447 -385 556 -483 78 -70 324 -274 413 -342 12 -9 33 -20 47 -24 24 -6 25 -6
7 13 -22 25 -87 204 -87 239 0 14 -4 23 -9 19 -11 -6 -26 33 -17 42 3 4 6 -2
6 -13 0 -14 5 -11 20 14 11 18 20 44 20 57 0 16 6 25 15 25 9 0 21 11 27 25
12 27 23 32 32 13 3 -7 4 5 3 26 -1 34 1 40 21 43 13 2 25 -3 28 -12 8 -19 24
-19 24 0 0 8 -5 15 -11 15 -5 0 -8 4 -4 9 3 5 1 12 -5 16 -16 10 12 33 33 27
18 -5 29 -17 198 -216 l93 -110 -50 -44 c-27 -24 -94 -80 -149 -124 -55 -45
-106 -91 -113 -104 -7 -13 -17 -24 -21 -24 -5 0 -29 -18 -53 -41 -23 -23 -73
-66 -110 -96 -38 -30 -68 -61 -68 -67 0 -6 -13 -20 -30 -29 -25 -15 -249 -205
-300 -254 -13 -12 -13 -13 3 -7 9 3 17 11 17 17 0 6 3 7 6 4 12 -11 -18 -38
-36 -32 -11 4 -38 -13 -77 -47 -33 -29 -85 -75 -117 -101 -31 -27 -54 -53 -51
-58 3 -5 0 -7 -7 -4 -7 3 -44 -22 -82 -55 -38 -33 -76 -60 -83 -60 -7 0 -13
-4 -13 -9 0 -8 -62 -53 -107 -77 -12 -7 -39 -10 -60 -7 -21 3 -74 -3 -118 -12
-54 -12 -141 -19 -270 -21 -250 -5 -412 -19 -477 -43 -29 -11 -67 -22 -85 -26
-28 -6 -31 -4 -26 14 7 27 29 45 45 35 17 -11 54 -9 123 6 33 7 96 18 140 25
50 7 79 16 78 23 -2 7 4 12 13 12 8 0 12 -4 9 -10 -7 -12 2 -12 30 0 19 7 18
9 -8 19 -16 6 -38 11 -51 11 -12 0 -27 5 -34 12 -7 7 -12 9 -12 4 0 -4 -7 -1
-15 7 -18 19 -157 77 -183 77 -11 0 -53 -21 -93 -48 -41 -26 -106 -62 -145
-80 l-71 -32 -169 1 c-93 1 -213 -4 -266 -11 -55 -7 -129 -9 -170 -6 -40 4
-203 9 -363 12 -159 3 -330 9 -380 13 -74 7 -102 5 -160 -11 -38 -10 -91 -23
-118 -29 -26 -6 -45 -15 -41 -20 3 -5 0 -9 -7 -9 -10 0 -10 -3 -1 -12 21 -21
13 -32 -9 -12 -15 13 -23 15 -26 7 -5 -14 -99 47 -174 114 -109 97 -185 160
-234 193 -27 18 -79 58 -115 89 -36 31 -87 75 -115 96 -27 22 -131 108 -230
190 -99 83 -198 163 -220 180 -22 16 -70 57 -106 90 -36 33 -80 68 -98 77 -36
20 -34 31 10 53 44 23 189 134 189 145 0 6 6 10 14 10 8 0 99 80 202 177 264
250 398 370 558 503 77 63 169 141 205 172 36 32 107 93 157 135 69 60 107
103 164 188 41 61 124 180 184 265 257 364 516 741 769 1122 211 316 274 404
284 396 7 -6 30 -38 50 -72z m-2853 -690 c-3 -9 -10 -16 -15 -16 -5 0 -4 9 3
20 14 22 21 20 12 -4z m5621 -97 c11 -17 -1 -21 -15 -4 -8 9 -8 15 -2 15 6 0
14 -5 17 -11z m150 -229 c3 -5 2 -10 -4 -10 -5 0 -13 5 -16 10 -3 6 -2 10 4
10 5 0 13 -4 16 -10z m-6075 -194 c0 -3 -4 -8 -10 -11 -5 -3 -10 -1 -10 4 0 6
5 11 10 11 6 0 10 -2 10 -4z m6230 -56 c0 -5 -2 -10 -4 -10 -3 0 -8 5 -11 10
-3 6 -1 10 4 10 6 0 11 -4 11 -10z m-6390 -204 c0 -3 -4 -8 -10 -11 -5 -3 -10
-1 -10 4 0 6 5 11 10 11 6 0 10 -2 10 -4z m-60 -100 c0 -3 -4 -8 -10 -11 -5
-3 -10 -1 -10 4 0 6 5 11 10 11 6 0 10 -2 10 -4z m-100 -170 c0 -3 -4 -8 -10
-11 -5 -3 -10 -1 -10 4 0 6 5 11 10 11 6 0 10 -2 10 -4z m6270 -1166 c0 -5 -5
-10 -11 -10 -5 0 -7 5 -4 10 3 6 8 10 11 10 2 0 4 -4 4 -10z m-5565 -218 c-3
-3 -11 0 -18 7 -9 10 -8 11 6 5 10 -3 15 -9 12 -12z m5310 8 c-3 -5 -12 -10
-18 -10 -7 0 -6 4 3 10 19 12 23 12 15 0z m-85 -74 c0 -3 -4 -8 -10 -11 -5 -3
-10 -1 -10 4 0 6 5 11 10 11 6 0 10 -2 10 -4z m-280 -251 c-7 -8 -17 -15 -22
-15 -6 0 -5 7 2 15 7 8 17 15 22 15 6 0 5 -7 -2 -15z m-90 -75 c-14 -10 -27
-16 -30 -13 -6 6 30 33 44 33 6 0 0 -9 -14 -20z m-175 -149 c-3 -6 -11 -11
-17 -11 -6 0 -6 6 2 15 14 17 26 13 15 -4z m-3815 -166 c7 -9 8 -15 2 -15 -5
0 -12 7 -16 15 -3 8 -4 15 -2 15 2 0 9 -7 16 -15z m3525 -85 c-3 -5 -11 -10
-16 -10 -6 0 -7 5 -4 10 3 6 11 10 16 10 6 0 7 -4 4 -10z m-1145 -25 c-7 -8
-17 -15 -23 -15 -6 0 -2 7 9 15 25 19 30 19 14 0z m-40 -25 c0 -5 -8 -10 -17
-10 -15 0 -16 2 -3 10 19 12 20 12 20 0z m205 -8 c-3 -3 -11 0 -18 7 -9 10 -8
11 6 5 10 -3 15 -9 12 -12z m895 -2 c0 -5 -5 -10 -11 -10 -5 0 -7 5 -4 10 3 6
8 10 11 10 2 0 4 -4 4 -10z m-3160 -85 c7 -8 9 -15 6 -15 -4 0 -14 7 -22 15
-9 8 -11 15 -6 15 5 0 15 -7 22 -15z m950 -9 c0 -9 -94 -66 -109 -66 -19 0 70
58 107 69 1 1 2 -1 2 -3z m1057 -3 c-15 -4 -16 -7 -5 -20 10 -13 10 -17 0 -20
-6 -3 -10 -8 -7 -13 3 -4 -19 -13 -48 -20 -108 -23 -138 -33 -146 -49 -8 -13
-15 -13 -60 9 -61 28 -78 45 -56 53 8 4 14 1 12 -6 -1 -7 5 -12 13 -12 8 -1
26 -7 39 -14 13 -7 21 -9 18 -4 -3 4 1 13 8 20 10 10 14 9 19 -2 4 -11 12 -12
38 -4 18 5 43 9 55 9 13 0 32 9 43 20 11 11 26 20 34 20 7 0 16 9 19 20 3 12
13 20 24 19 17 -1 17 -2 0 -6z m-392 -33 c-3 -5 -12 -7 -20 -3 -21 7 -19 13 6
13 11 0 18 -4 14 -10z m-1395 -16 c0 -2 -7 -4 -15 -4 -8 0 -15 4 -15 10 0 5 7
7 15 4 8 -4 15 -8 15 -10z m-136 -10 c3 -8 2 -12 -4 -9 -6 3 -10 10 -10 16 0
14 7 11 14 -7z m1581 6 c-3 -5 -11 -10 -16 -10 -6 0 -7 5 -4 10 3 6 11 10 16
10 6 0 7 -4 4 -10z m-1485 -42 c0 -12 -6 -9 -26 13 -19 22 -19 22 4 8 12 -8
22 -17 22 -21z m250 14 c0 -10 -145 -92 -163 -92 -7 0 -26 13 -42 30 l-28 29
27 11 c36 13 36 13 36 -7 0 -15 -2 -16 -10 -3 -9 13 -10 13 -10 -1 0 -8 6 -24
14 -35 14 -18 15 -18 21 -1 4 9 12 17 17 17 11 0 70 24 108 45 32 17 30 16 30
7z m380 -2 c-19 -13 -30 -13 -30 0 0 6 10 10 23 10 18 0 19 -2 7 -10z m-215
-39 c41 -37 83 -31 133 16 8 7 18 11 23 7 11 -6 -69 -64 -90 -64 -18 0 -141
62 -141 72 0 11 52 -11 75 -31z m115 15 c0 -2 -11 -6 -25 -8 -13 -3 -22 -1
-19 3 5 9 44 13 44 5z m-525 -44 c-6 -7 -35 18 -35 31 0 5 9 2 20 -8 11 -10
18 -20 15 -23z m990 -782 c3 -5 1 -10 -4 -10 -6 0 -11 5 -11 10 0 6 2 10 4 10
3 0 8 -4 11 -10z"/>
<path d="M5177 5667 c-4 -202 -13 -343 -27 -457 -26 -209 -80 -540 -90 -560
-12 -22 -111 -145 -119 -148 -11 -4 -117 247 -139 328 -13 46 -23 64 -33 62
-8 -2 -60 -29 -117 -60 l-103 -57 6 -67 6 -68 -44 -47 c-75 -82 -239 -283
-322 -396 -44 -60 -115 -155 -158 -210 -44 -56 -86 -117 -95 -134 -9 -18 -22
-33 -29 -33 -15 0 -16 19 -4 125 18 152 22 225 14 225 -5 0 -56 -38 -113 -83
-105 -84 -196 -165 -652 -587 -293 -271 -412 -371 -481 -408 l-52 -27 655 -3
c360 -2 678 0 705 3 49 6 51 7 130 108 44 56 125 156 180 222 87 103 339 421
400 504 10 14 69 87 130 161 61 74 135 167 165 205 30 39 85 107 123 153 l69
83 25 -23 c64 -59 528 -630 735 -903 41 -55 121 -156 177 -225 57 -69 130
-160 164 -202 l62 -78 150 -2 c120 -1 566 0 610 2 15 0 -81 44 -153 69 -97 33
-154 65 -201 113 -33 32 -40 44 -27 46 9 2 16 8 16 15 0 6 6 2 14 -8 8 -11 11
-26 8 -35 -5 -12 -3 -13 9 -3 8 6 16 26 17 44 3 42 12 51 12 13 0 -33 16 -54
40 -54 13 1 12 3 -2 14 -22 16 -23 25 -2 40 22 16 8 44 -24 48 -16 2 -26 8
-24 17 1 7 3 28 4 47 1 21 6 34 15 34 7 0 21 8 32 19 10 10 25 21 32 24 9 4 8
6 -5 6 -15 1 -16 4 -6 16 11 13 10 14 -4 9 -10 -4 -16 -1 -16 9 0 8 -7 18 -16
21 -8 3 -12 11 -8 17 4 7 3 9 -4 5 -6 -3 -17 1 -24 10 -27 33 -56 60 -114 107
-88 72 -127 123 -338 442 -279 423 -256 397 -432 485 -165 83 -165 81 -48 120
l63 21 -45 82 c-25 45 -66 125 -90 177 -25 52 -49 102 -53 110 -12 23 -151 88
-203 96 -53 7 -62 18 -23 28 26 7 32 25 15 42 -5 5 -83 152 -173 327 l-164
317 -6 -293z m1527 -2349 c8 -6 8 -8 0 -8 -15 0 -45 35 -37 44 4 3 11 -1 17
-11 5 -10 14 -21 20 -25z m113 20 c-3 -8 -6 -5 -6 6 -1 11 2 17 5 13 3 -3 4
-12 1 -19z m-420 -90 c-3 -8 -6 -5 -6 6 -1 11 2 17 5 13 3 -3 4 -12 1 -19z"/>
<path d="M7810 3580 c0 -5 5 -10 11 -10 5 0 7 5 4 10 -3 6 -8 10 -11 10 -2 0
-4 -4 -4 -10z"/>
<path d="M5157 3478 c-8 -13 -26 -43 -41 -68 -46 -77 -157 -223 -185 -242 -22
-16 -44 -55 -36 -67 3 -5 -28 -12 -67 -15 -40 -3 -89 -8 -108 -9 -90 -9 511
-13 1100 -8 376 4 384 10 40 31 l-194 12 -159 53 c-148 49 -163 57 -208 101
-28 27 -62 66 -76 87 -23 33 -25 41 -14 59 9 15 9 23 0 34 -9 11 -9 14 1 14 9
0 7 7 -5 20 -23 26 -31 25 -48 -2z"/>
<path d="M6811 3449 c0 -8 4 -23 8 -33 7 -19 8 -19 13 2 4 12 0 26 -8 33 -11
9 -14 8 -13 -2z"/>
<path d="M7653 3445 c0 -8 8 -15 17 -15 9 0 17 7 17 15 0 8 -8 15 -17 15 -9 0
-17 -7 -17 -15z"/>
<path d="M5270 3402 c0 -5 7 -15 15 -22 8 -7 15 -8 15 -2 0 5 -7 15 -15 22 -8
7 -15 8 -15 2z"/>
<path d="M7620 3369 c0 -5 5 -7 10 -4 6 3 10 8 10 11 0 2 -4 4 -10 4 -5 0 -10
-5 -10 -11z"/>
<path d="M5320 3340 c6 -11 13 -20 16 -20 2 0 0 9 -6 20 -6 11 -13 20 -16 20
-2 0 0 -9 6 -20z"/>
<path d="M5998 3293 c7 -3 16 -2 19 1 4 3 -2 6 -13 5 -11 0 -14 -3 -6 -6z"/>
<path d="M4588 3283 c7 -3 16 -2 19 1 4 3 -2 6 -13 5 -11 0 -14 -3 -6 -6z"/>
<path d="M5908 3283 c7 -3 16 -2 19 1 4 3 -2 6 -13 5 -11 0 -14 -3 -6 -6z"/>
<path d="M6070 2070 c8 -5 24 -9 35 -9 l20 0 -20 9 c-11 5 -27 9 -35 9 -13 1
-13 0 0 -9z"/>
<path d="M5530 1970 c-8 -5 -10 -10 -5 -10 6 0 17 5 25 10 8 5 11 10 5 10 -5
0 -17 -5 -25 -10z"/>
</g>
</svg>
